<svg xmlns="http://www.w3.org/2000/svg" viewBox="0 0 100 100" x="0px" y="0px"><path d="M112.874,370.657c37.055,37.054,83.952,70.834,139.393,100.4a8,8,0,0,0,7.529,0c55.44-29.568,102.338-63.348,139.392-100.4,29.805-29.805,53.356-61.795,70-95.079,27.836-55.675,26.99-96.027,26.844-99.752a128.028,128.028,0,0,0-240-61.86,128.023,128.023,0,0,0-240,61.86c-.145,3.725-.992,44.077,26.845,99.752C59.519,308.862,83.069,340.852,112.874,370.657ZM32.021,176.4c.007-.132.01-.266.01-.4a112.019,112.019,0,0,1,216.535-40.282,8,8,0,0,0,14.93,0A112.018,112.018,0,0,1,480.031,176c0,.133,0,.267.01.4.02.379,1.586,38.521-25.165,92.023-15.872,31.744-38.414,62.334-67,90.921-35.1,35.1-79.441,67.242-131.843,95.577-52.088-28.165-96.217-60.1-131.213-94.947-28.562-28.447-51.138-58.892-67.1-90.491C36.013,226.508,31.419,189.79,32.021,176.4Z"/><path d="M418.4,145.707c-17.265-16.049-42.67-22.611-67.968-17.552-19.179,3.836-33.322,16.276-40.9,35.973a87.192,87.192,0,0,0-5.166,21.972,31.239,31.239,0,0,0-16.388,14.732c-4.028,7.876-4.476,16.772-3.676,24.375L254.87,210.49l-2.785-11.152A31.765,31.765,0,0,0,256,184a32.124,32.124,0,0,0-10.1-23.325,31.733,31.733,0,0,0-23.945-8.611,32.3,32.3,0,0,0-29.926,30.468,31.84,31.84,0,0,0,12.72,27.03l3.325,23.556a8,8,0,0,0,2.265,4.539l7.623,7.623a68.66,68.66,0,0,0-14.608,10.167c-6.6-14.577-18.921-24.544-36.3-29.176a88.927,88.927,0,0,0-25.444-2.713l-1.014-3.042a25.125,25.125,0,0,0-48.211,14.039l9.3,37.209a23.992,23.992,0,0,0,19.337,17.852l29.857,4.976c-4.273,38.806,18.422,62.032,19.454,63.065,14.354,14.355,37.336,21.969,63.41,21.969a150.614,150.614,0,0,0,40.006-5.617c41.028-11.363,70.187-36.81,78-68.069,6.831-27.323,22.688-32.327,41.049-38.123,19.9-6.279,42.45-13.4,47.128-50.825C444.684,179.032,430.845,157.274,418.4,145.707ZM336.239,302.06c-6.4,25.592-31.352,46.725-66.751,56.53s-70.7,4.883-87.8-12.218a56.257,56.257,0,0,1-9.675-15.29c-5.7-12.88-7.1-26.847-4.166-41.513a8,8,0,0,0-6.53-9.461l-37.653-6.275a7.994,7.994,0,0,1-6.445-5.95l-9.3-37.209a9.126,9.126,0,0,1,17.511-5.1l2.985,8.955a8.01,8.01,0,0,0,8.7,5.392,73.813,73.813,0,0,1,26.239,1.92c16.392,4.5,25.76,14.628,28.648,30.921V304a8,8,0,0,0,16,0V274.208c2.231-3.347,8.929-11.728,22.962-17.315,7.275,4.746,24.646,15.855,37.46,22.262a8,8,0,1,0,7.156-14.31c-13.928-6.964-34.577-20.487-38.49-23.071l-13.54-13.54-3.456-24.482a8,8,0,0,0-3.985-5.846,15.919,15.919,0,0,1-8.089-14.654,16.13,16.13,0,0,1,14.94-15.219A15.992,15.992,0,0,1,237,193.313a8.005,8.005,0,0,0-1.264,6.606l4.5,18.019a8,8,0,0,0,4.184,5.217l48,24c.1.049,9.728,5.1,3.988,22.315a8,8,0,1,0,15.18,5.06c7.058-21.174-1.559-34.275-8.967-39.789-2-6.266-4.533-18.585-.382-26.658,2.144-4.168,5.971-6.89,11.7-8.322A8.024,8.024,0,0,0,320,192.02c.007-1.294.364-24.841,15.206-38.846,2.245,27.465,11.957,39.884,20.356,45.482,7.731,5.155,11.841,10.37,11.573,14.686-.244,3.913-4.349,8.321-10.712,11.5-5.164,2.581-10.789,8.832-8.263,23.951a105.383,105.383,0,0,0,6.195,20.605C346.637,276.482,340.09,286.655,336.239,302.06Zm87.823-87.052c-3.406,27.243-17.106,31.567-36.068,37.552a132.309,132.309,0,0,0-20.054,7.595c-5.552-15.091-4.391-20.216-4.069-21.147,11.618-5.9,18.623-14.878,19.233-24.672.451-7.248-2.421-18.162-18.667-28.993-8.26-5.5-13.145-20.241-13.668-40.832.908-.247,1.838-.474,2.8-.666,19.957-3.992,40.63,1.212,53.938,13.582C421.429,170.367,427.153,190.278,424.062,215.008Z"/><text x="0" y="527" fill="#000000" font-size="5px" font-weight="bold" font-family="'Helvetica Neue', Helvetica, Arial-Unicode, Arial, Sans-serif">Created by iconixar</text><text x="0" y="532" fill="#000000" font-size="5px" font-weight="bold" font-family="'Helvetica Neue', Helvetica, Arial-Unicode, Arial, Sans-serif">from the Noun Project</text></svg>